<?xml version="1.0" encoding="UTF-8"?>
<svg id="Layer_2" data-name="Layer 2" xmlns="http://www.w3.org/2000/svg" viewBox="0 0 395.66 405.09">
  <defs>
    <style>
      .cls-1 {
        fill: #fff;
      }
    </style>
  </defs>
  <g id="Layer_1-2" data-name="Layer 1">
    <g>
      <path class="cls-1" d="M263.9,152.36l-98.38-68.24c-6.47-4.49-15.32.14-15.32,8.02v136.47c0,7.87,8.85,12.51,15.32,8.02l98.38-68.24c5.6-3.88,5.6-12.15,0-16.03Z"/>
      <path class="cls-1" d="M307.61,24c35.32,0,64.05,28.73,64.05,64.05v142.93c0,35.32-28.74,64.06-64.06,64.06h-35.51c-6.42,0-12.72,2.21-17.73,6.22l-1.6,1.28-1.36,1.53-58.6,65.98v-46.61c0-15.66-12.74-28.39-28.39-28.39h-80.75c-32.9,0-59.66-26.77-59.66-59.67V83.67c0-32.9,26.76-59.67,59.66-59.67h223.95M307.61,0H83.66C37.46,0,0,37.46,0,83.67v151.71c0,46.21,37.46,83.67,83.66,83.67h80.75c2.43,0,4.39,1.97,4.39,4.39v63.87c0,10.45,8.63,17.77,17.73,17.77,3.64,0,7.35-1.17,10.61-3.78l72.2-81.29c.78-.62,1.75-.96,2.74-.96h35.51c48.64,0,88.06-39.43,88.06-88.06V88.05c0-48.63-39.42-88.05-88.05-88.05h0Z"/>
    </g>
  </g>
</svg>